<?xml version="1.0" encoding="utf-8"?>
<!-- Generator: Adobe Illustrator 24.0.1, SVG Export Plug-In . SVG Version: 6.00 Build 0)  -->
<svg version="1.1" id="Camada_1" xmlns="http://www.w3.org/2000/svg" xmlns:xlink="http://www.w3.org/1999/xlink" x="0px" y="0px"
	 viewBox="0 0 595.3 841.9" style="enable-background:new 0 0 595.3 841.9;" xml:space="preserve">
<style type="text/css">
	.st0{fill:#C9A227;}
</style>
<g>
	<path class="st0" d="M398.5,340.3c0.2-4.8-0.4-9.7,0.3-14.5c1.4-9.3-3.5-15.5-10-20.6c-5.1-4.1-12.2-2.7-16.5,2.6
		c-2,2.5-3.7,5.2-5.5,7.8c0,3,0,6,0,8.8c2.6,4.3,4.5,9.3,11.8,7.1c1.3-1.7,2.9-4,5.1-7c-3.9-2.3-6.9-4.1-10.1-6
		c-1.1-5,2.6-6.3,6.7-8.2c2.8,1.1,5.9,2.4,8.7,3.6c0.8,1.5,1.3,2.4,1.7,3.4c5.4,12.5-2.3,24.5-15.9,24.2c-4.5-0.1-9-0.9-13.4-2.1
		c-8.4-2.3-16.6-5-25.3-7.7c-2.4,1.8-4.7,3.5-6.9,5.1c1.1,11.6,13.9,8,19.1,16.1c-7.5-0.9-14.1-1.7-21-2.6c-0.7,1.3-1.5,2.6-2.2,4
		c-4.4,8.5-8,17.5-13.2,25.4c-10.1,15.3-12.2,33.1-18.9,49.3c5.5,3.1,10.3,5.7,15.6,8.7c-1,4.4-1.9,7.9-2.8,11.7
		c-15.7,4-31,7.8-48,12.1c0.6-10.3,1.1-19.3,1.6-28.3c-0.7-0.2-1.5-0.4-2.2-0.6c-13.4,8.6-26.2,18-37.2,30.1
		c7.8,4,15.4,6.1,21.6,10.9c-0.2,0.7-0.5,1.3-0.7,2c-9.9-2-19.8-4.1-30.2-6.3c-3.8,2.9-7.8,5.9-11.8,8.8c0.7,3.9,1.2,7,1.6,9.2
		c11.5,3.4,21.9,6.3,32.3,9.5c8.5,2.6,14.2,8.4,17.1,16.7c1.5,4.2,2.2,8.7,3.1,12.2c-0.6,3.5-1.1,6-1.5,8.7
		c-0.9,7.5-10.6,20-17.3,20.1c-17.7,0.3-22,0.6-27.6-16.2c-0.4-1.3-0.8-2.5-1.1-3.6c2-10,7.2-16.8,17.4-19.3
		c2.9,1.4,5.7,2.8,8.6,4.3c1,3.9,2.1,7.5-0.9,9.8c-4.3-0.6-7.8-1.1-11.7-1.7c-0.5,4.5-0.9,8-1.3,11.5c1.7,2.3,3.3,4.4,4.8,6.5
		c0.4-0.4,0.8-0.8,1.1-1.2c3.4,0,6.9,0,11.2,0c2.4-3.8,4.9-7.7,6.9-10.8c0-5.7,0-10.2,0-15.5c-2.9-7.4-9.4-11.5-17.9-13.6
		c-2.9,1.2-6.3,2.1-9.2,3.8c-11.8,6.6-18.2,22-14.4,35.5c5.3,19.1,25.7,28.5,41.6,17.6c4.2-2.9,8.5-5.8,12-9.4
		c10.4-10.5,20.5-21.3,30.6-32.1c0.8-0.9,1.1-2.2,1.9-3.9c-3.5-1.7-6.7-3-9.7-4.5c-3-1.5-6-3.1-9.6-4.9c5.1-1.7,11.8-0.8,27.1,3.2
		c13.9-15.5,28.2-31.4,42.1-46.9c-3.5-6-11.5-3.9-13.4-10.5c6.8,0.5,13,0.9,20.2,1.5c14.1-17.3,27.6-35.6,38.6-56.7
		c-9-3.3-17.2-6.3-25.5-9.3c0.2-0.8,0.4-1.6,0.6-2.4c4.6,0.5,9.2,1,13.7,1.6c4.9,0.6,9.8,1.3,14.3,2c1.5-2.2,2.5-3.1,2.9-4.4
		c3.3-9,6.9-17.8,9.4-27C398.7,352.2,398.3,346.1,398.5,340.3z"/>
	<path class="st0" d="M189.3,367.9c1.1-1.9,2.2-3.7,3.1-5.5c3.8-8,8.3-15.7,11.2-24c4.2-11.9,15.1-13.8,24.5-19.5
		c0.5,2.3,1.1,3.3,0.9,4.3c-2.3,11.2-4.2,22.5-7.1,33.5c-3.1,12.1,3.9,26,15.7,28.6c9.6,2.1,19.4,3.5,29.1,5
		c3.3,0.5,6.6,0.2,11.8,0.4c-7,18.3-6.2,36-8.1,53.5c5.6,3.3,16.1,1.5,20.7-3.6c-3.4-2.2-6.8-4.5-10.2-6.6
		c5-14.6,9.7-28.1,14.2-41.7c3.6-11,0.9-15-8.7-18.3c-10.9-3.7-21.5-8-32.8-12.1c0.4-8.8,7.2-14.7,10.1-22.6
		c-2.1-5.6-6.3-10.7-6.1-18.8c14.1,7.1,23.5,19.2,36.8,25.3c9.3-5.9,18.2-11.3,26.8-17.2c3.3-2.3,6.9-5.2,4.8-10.5
		c-11.2,4.1-21.4,9.8-33.1,10.9c-5-5.6-10-10.2-13.8-15.7c-12.4-18.4-41.9-21.2-56.5-9c-6,5-12.8,8.9-19.4,13
		c-4.4,2.7-7.1,6.3-8.2,11.4c-0.5,2.4-1.4,4.6-2.2,6.9c-2.4,7.7-5,15.3-7.1,23C184.9,361.8,183.6,365.9,189.3,367.9z"/>
	<path class="st0" d="M191.4,520.5c-4.8-2.5-9.3-4.8-13.8-7.1c0.2-0.6,0.4-1.2,0.6-1.9c5.4,0.3,11.4,2,16.1,0.3
		c4.7-1.7,8.2-6.8,12.2-10.4c-0.2-0.7-0.4-1.4-0.7-2c-24.4-6.4-48.8-12.8-73-19.2c-4.2,2.9-10.2,1.8-12.2,7.9
		c2.9,2.2,5.7,4.4,8.5,6.6c-0.2,0.6-0.3,1.1-0.5,1.7c-5.1-0.4-10.1-0.7-15.4-1.1c-5.7,7.3-5.4,14.9-3.2,22.7
		c10.2,4.8,21,6.8,30.3,12.1c-0.2,0.6-0.4,1.2-0.5,1.8c-8.8-1.3-17.6-2.7-26.9-4.1c3.5,8.4,10.3,11.8,17.9,14
		c15.1,4.5,30.3,8.7,45.5,13c5.8,1.6,11.5,3.1,18.5,5c-2.6-7.7-5.9-13.8-6.5-20.1C188,533.5,190.3,527,191.4,520.5z"/>
	<path class="st0" d="M442.4,269c-12.9,12.4-24.8,23.9-36.9,35.6c10.4,31.9,2.1,61.9-10,91.8c15.8-14.6,27.3-32.3,40.9-49.3
		c-5.6-5.3-11-10.3-16.7-15.5c7.3-17.2,13.4-34.4,22.4-51.7c7.6,9,14.5,16.7,21,24.7c10.8,13.1,19.5,28.3,36.6,34.5
		C480.5,315.5,461.2,292,442.4,269z"/>
	<path class="st0" d="M183.5,482.5c1.3,0.7,3.3,0.1,5,0.1c-1.2-6.2-2.3-11.5-3.1-15.8c8.9-9.2,16-18.3,24.8-25.1
		c15.1-11.8,21.5-28.1,27.3-45.1c-7.5-3.8-14.7-7.5-22.2-11.3c-1.3,8.2-2.6,16-3.9,23.9c-1.2,7.3-3.4,13.6-10.4,18
		c-4.1,2.5-6.9,7.4-9.7,11.5c-5.8,8.6-9.1,19-19,24.6C174.1,471.3,179.3,480.4,183.5,482.5z"/>
	<path class="st0" d="M311.6,313.2c9.6-10.5,20.4-11.9,28.1-3.3c-0.2,0.9-0.4,1.9-0.8,2.9c-2.6,6.8-2,8.2,4.6,10.7
		c3.9,1.5,7.9,2.6,13,4.2c0.3-11.9,0.4-23.9,13-31.9c-20.5-5.8-39.1-11-56.5-15.9c-10,5.1-15,11.7-14.1,21.3
		C299.7,308.2,303.8,311.6,311.6,313.2z"/>
	<path class="st0" d="M422.4,259.1c1.5-0.6,2.3-0.8,3-1.2c3.1-2.1,6.2-4.2,9.4-6.3c6.1-4.1,7-4,12.9,0.1c3.8,2.7,7.8,5.2,12.5,8.4
		c-0.5-9-5.6-15.9-3.8-23.1c3.7-5.1,10.5-6.2,12.8-12.9c-7-0.4-12.8-0.8-19.2-1.2c-2.8-6.1-5.4-12-8.8-19.4
		c-3.2,7.3-5.7,12.8-8.4,18.9c-6.6,0.8-12.2,1.6-17.9,2.3c-0.2,0.6-0.4,1.3-0.6,1.9c3.8,3.4,7.7,6.9,12.7,11.4
		C425.6,244.3,424,251.4,422.4,259.1z"/>
	<path class="st0" d="M275.9,292.5c3.4-11.9,2.6-21.7-0.8-31.4c-0.5-1.4-3-3.2-4.3-3c-7.4,0.9-15.8-0.4-21.3,9.5
		c1.3,5.4,2.9,12,4.7,19.2C261.2,288.7,267.9,290.5,275.9,292.5z"/>
</g>
</svg>
