<?xml version="1.0" encoding="utf-8"?>
<!-- Generator: Adobe Illustrator 24.0.1, SVG Export Plug-In . SVG Version: 6.00 Build 0)  -->
<svg version="1.1" id="Camada_1" xmlns="http://www.w3.org/2000/svg" xmlns:xlink="http://www.w3.org/1999/xlink" x="0px" y="0px"
	 viewBox="0 0 595.28 841.89" style="enable-background:new 0 0 595.28 841.89;" xml:space="preserve">
<g>
	<path d="M398.53,340.29c0.21-4.82-0.37-9.73,0.33-14.47c1.36-9.31-3.55-15.47-10-20.61c-5.14-4.1-12.21-2.67-16.51,2.64
		c-2.01,2.49-3.72,5.22-5.55,7.82c0,3.03,0,5.97,0,8.75c2.59,4.3,4.49,9.25,11.83,7.09c1.26-1.7,2.93-3.96,5.14-6.96
		c-3.86-2.31-6.92-4.14-10.08-6.04c-1.13-5.05,2.64-6.28,6.73-8.23c2.77,1.14,5.91,2.44,8.73,3.6c0.75,1.49,1.27,2.42,1.69,3.39
		c5.36,12.48-2.34,24.45-15.85,24.21c-4.47-0.08-9.03-0.91-13.36-2.08c-8.38-2.26-16.62-5.02-25.29-7.68
		c-2.39,1.79-4.69,3.52-6.86,5.15c1.15,11.63,13.93,7.96,19.12,16.1c-7.53-0.93-14.09-1.74-21.01-2.59c-0.68,1.26-1.45,2.61-2.16,4
		c-4.35,8.5-7.96,17.48-13.18,25.41c-10.06,15.25-12.2,33.12-18.85,49.31c5.54,3.08,10.3,5.72,15.61,8.67
		c-1.03,4.37-1.86,7.9-2.76,11.73c-15.72,3.96-31.04,7.82-48.01,12.1c0.59-10.34,1.11-19.33,1.62-28.33
		c-0.74-0.2-1.47-0.41-2.21-0.61c-13.41,8.64-26.21,18.02-37.17,30.12c7.76,4.04,15.42,6.14,21.61,10.85
		c-0.24,0.67-0.48,1.34-0.72,2c-9.89-2.05-19.78-4.1-30.23-6.26c-3.84,2.87-7.84,5.86-11.83,8.84c0.67,3.91,1.2,6.96,1.58,9.2
		c11.51,3.37,21.94,6.32,32.31,9.48c8.52,2.6,14.16,8.43,17.05,16.7c1.47,4.22,2.21,8.7,3.06,12.17c-0.6,3.45-1.15,6.04-1.48,8.66
		c-0.95,7.45-10.62,19.96-17.29,20.07c-17.69,0.29-22,0.56-27.64-16.23c-0.42-1.26-0.79-2.53-1.13-3.61
		c1.99-10.05,7.17-16.82,17.4-19.31c2.86,1.42,5.68,2.82,8.56,4.25c1.02,3.93,2.09,7.48-0.95,9.78c-4.3-0.62-7.78-1.12-11.69-1.68
		c-0.52,4.53-0.92,7.96-1.33,11.5c1.69,2.27,3.27,4.38,4.84,6.5c0.38-0.41,0.77-0.82,1.15-1.24c3.44,0,6.88,0,11.18,0
		c2.42-3.77,4.95-7.74,6.93-10.83c0-5.67,0-10.21,0-15.52c-2.93-7.38-9.41-11.49-17.94-13.62c-2.89,1.16-6.26,2.11-9.23,3.77
		c-11.75,6.57-18.17,21.96-14.41,35.5c5.31,19.11,25.72,28.51,41.64,17.62c4.19-2.87,8.49-5.78,12.03-9.36
		c10.4-10.51,20.48-21.35,30.61-32.12c0.81-0.86,1.08-2.21,1.85-3.88c-3.55-1.65-6.66-3.05-9.74-4.55c-3.04-1.48-6.04-3.06-9.65-4.9
		c5.07-1.7,11.78-0.84,27.12,3.23c13.92-15.5,28.18-31.39,42.14-46.94c-3.47-5.96-11.5-3.9-13.36-10.45
		c6.79,0.49,13.01,0.93,20.18,1.45c14.08-17.26,27.57-35.64,38.56-56.72c-8.96-3.28-17.2-6.3-25.45-9.31c0.21-0.8,0.41-1.6,0.62-2.4
		c4.58,0.54,9.16,1.04,13.73,1.62c4.91,0.63,9.8,1.34,14.3,1.96c1.47-2.16,2.48-3.15,2.92-4.36c3.26-8.95,6.94-17.8,9.39-26.98
		C398.67,352.17,398.28,346.11,398.53,340.29z"/>
	<path d="M189.29,367.88c1.09-1.93,2.21-3.66,3.1-5.51c3.81-7.97,8.25-15.74,11.16-24.03c4.17-11.9,15.06-13.8,24.46-19.48
		c0.52,2.27,1.12,3.34,0.93,4.26c-2.26,11.19-4.22,22.45-7.08,33.49c-3.13,12.08,3.87,26.03,15.66,28.62
		c9.61,2.12,19.38,3.52,29.12,5c3.26,0.5,6.64,0.24,11.77,0.37c-6.99,18.26-6.17,36.05-8.07,53.51c5.65,3.29,16.1,1.45,20.74-3.62
		c-3.41-2.22-6.83-4.45-10.2-6.65c4.98-14.59,9.72-28.1,14.19-41.69c3.61-10.98,0.92-15.03-8.73-18.34
		c-10.86-3.73-21.54-7.97-32.75-12.15c0.42-8.76,7.17-14.68,10.06-22.59c-2.1-5.58-6.26-10.73-6.07-18.79
		c14.08,7.1,23.45,19.24,36.77,25.28c9.26-5.88,18.22-11.26,26.81-17.17c3.28-2.26,6.94-5.22,4.82-10.5
		c-11.2,4.06-21.42,9.76-33.09,10.92c-4.97-5.6-10.04-10.19-13.75-15.69c-12.41-18.41-41.86-21.21-56.52-9.02
		c-5.96,4.95-12.79,8.89-19.41,13c-4.39,2.73-7.11,6.34-8.17,11.37c-0.5,2.35-1.45,4.61-2.17,6.91c-2.4,7.67-5.01,15.28-7.1,23.03
		C184.85,361.77,183.55,365.93,189.29,367.88z"/>
	<path d="M191.36,520.47c-4.75-2.45-9.29-4.79-13.83-7.12c0.21-0.62,0.42-1.24,0.63-1.86c5.43,0.25,11.41,2,16.14,0.31
		c4.7-1.67,8.16-6.82,12.16-10.44c-0.22-0.68-0.45-1.36-0.67-2.05c-24.39-6.41-48.78-12.81-72.98-19.17
		c-4.16,2.88-10.18,1.82-12.15,7.93c2.88,2.23,5.71,4.41,8.54,6.6c-0.17,0.57-0.34,1.13-0.51,1.7c-5.05-0.35-10.11-0.7-15.38-1.06
		c-5.71,7.29-5.45,14.89-3.24,22.66c10.23,4.77,20.99,6.85,30.31,12.14c-0.18,0.61-0.36,1.23-0.53,1.84
		c-8.78-1.35-17.57-2.71-26.88-4.14c3.46,8.42,10.35,11.78,17.94,14.01c15.14,4.46,30.33,8.73,45.52,13.03
		c5.75,1.62,11.54,3.09,18.54,4.96c-2.62-7.72-5.93-13.79-6.46-20.09C188,533.49,190.28,527.02,191.36,520.47z"/>
	<path d="M442.39,269.05c-12.87,12.42-24.81,23.94-36.86,35.57c10.38,31.9,2.1,61.91-10.01,91.8c15.82-14.62,27.29-32.26,40.93-49.3
		c-5.64-5.25-11.03-10.27-16.7-15.54c7.25-17.24,13.39-34.38,22.41-51.71c7.64,8.96,14.48,16.71,21.02,24.7
		c10.75,13.13,19.45,28.29,36.64,34.55C480.5,315.55,461.18,291.98,442.39,269.05z"/>
	<path d="M183.47,482.52c1.32,0.68,3.3,0.11,4.96,0.11c-1.23-6.24-2.27-11.55-3.1-15.75c8.93-9.19,16-18.28,24.81-25.15
		c15.12-11.8,21.49-28.09,27.26-45.09c-7.52-3.82-14.71-7.47-22.18-11.26c-1.33,8.21-2.58,16.04-3.87,23.86
		c-1.2,7.27-3.36,13.59-10.38,18c-4.06,2.54-6.88,7.35-9.67,11.53c-5.75,8.63-9.09,18.99-18.99,24.63
		C174.07,471.28,179.28,480.35,183.47,482.52z"/>
	<path d="M311.59,313.22c9.57-10.49,20.42-11.86,28.12-3.34c-0.22,0.87-0.39,1.92-0.76,2.9c-2.58,6.75-2.05,8.18,4.6,10.67
		c3.9,1.46,7.94,2.56,12.97,4.16c0.29-11.9,0.37-23.87,13.03-31.91c-20.49-5.77-39.09-11.01-56.45-15.9
		c-9.96,5.06-14.99,11.68-14.09,21.27C299.68,308.21,303.84,311.62,311.59,313.22z"/>
	<path d="M422.35,259.06c1.5-0.6,2.31-0.79,2.95-1.21c3.14-2.06,6.24-4.2,9.36-6.3c6.06-4.07,7-4.02,12.91,0.08
		c3.84,2.67,7.77,5.21,12.53,8.39c-0.52-9.04-5.65-15.89-3.75-23.09c3.68-5.08,10.48-6.18,12.78-12.95
		c-6.98-0.45-12.78-0.83-19.16-1.24c-2.78-6.11-5.43-11.96-8.81-19.4c-3.24,7.32-5.69,12.84-8.38,18.91
		c-6.57,0.83-12.21,1.55-17.85,2.26c-0.2,0.65-0.41,1.3-0.61,1.95c3.83,3.45,7.67,6.9,12.66,11.39
		C425.58,244.25,424.02,251.41,422.35,259.06z"/>
	<path d="M275.87,292.55c3.35-11.89,2.63-21.71-0.8-31.35c-0.5-1.39-2.96-3.17-4.3-3.01c-7.4,0.89-15.84-0.43-21.26,9.49
		c1.33,5.4,2.95,11.98,4.73,19.22C261.17,288.71,267.93,290.48,275.87,292.55z"/>
</g>
</svg>
