<?xml version="1.0" encoding="utf-8"?>
<!-- Generator: Adobe Illustrator 24.0.1, SVG Export Plug-In . SVG Version: 6.00 Build 0)  -->
<svg version="1.1" id="Camada_1" xmlns="http://www.w3.org/2000/svg" xmlns:xlink="http://www.w3.org/1999/xlink" x="0px" y="0px"
	 viewBox="0 0 595.3 841.9" style="enable-background:new 0 0 595.3 841.9;" xml:space="preserve">
<style type="text/css">
	.st0{fill:#C9A227;}
</style>
<g>
	<path class="st0" d="M439.8,341c0.3-7.2-0.6-14.6,0.5-21.8c2.1-14-5.3-23.3-15.1-31c-7.7-6.2-18.4-4.1-24.9,3.9
		c-3,3.8-5.6,7.8-8.3,11.7c0,4.5,0,9,0,13.3c3.9,6.5,6.8,14,17.8,10.7c2-2.6,4.4-6,7.7-10.5c-5.9-3.5-10.4-6.2-15.2-9
		c-1.7-7.5,3.9-9.5,10.1-12.4c4.2,1.7,8.9,3.6,13.1,5.4c1.2,2.3,2,3.6,2.6,5.1c8.1,18.8-3.5,36.9-23.9,36.5
		c-6.8-0.2-13.6-1.4-20.2-3.2c-12.7-3.5-25-7.5-38.1-11.6c-3.6,2.7-7.1,5.3-10.4,7.7c1.7,17.5,20.9,12,28.8,24.2
		c-11.3-1.4-21.2-2.6-31.6-3.9c-1.1,2-2.3,3.9-3.3,6c-6.6,12.8-12,26.4-19.9,38.3c-15.2,23-18.4,49.9-28.5,74.3
		c8.3,4.7,15.5,8.6,23.5,13.1c-1.5,6.6-2.9,11.9-4.2,17.6c-23.6,6-46.7,11.7-72.3,18.2c0.9-15.5,1.7-29.1,2.4-42.6
		c-1.1-0.3-2.3-0.6-3.3-0.9c-20.2,13-39.5,27.1-56,45.3c11.7,6,23.2,9.2,32.5,16.4c-0.3,1.1-0.8,2-1.1,3c-14.9-3-29.8-6.2-45.5-9.5
		c-5.7,4.4-11.7,8.9-17.8,13.3c1.1,5.9,1.8,10.5,2.4,13.9c17.3,5.1,33,9.5,48.7,14.3c12.8,3.9,21.4,12.7,25.8,25.2
		c2.3,6.3,3.3,13.1,4.7,18.4c-0.9,5.3-1.7,9-2.3,13.1c-1.4,11.3-16,30.1-26.1,30.3c-26.7,0.5-33.1,0.9-41.6-24.4
		c-0.6-2-1.2-3.8-1.7-5.4c3-15.1,10.8-25.3,26.2-29.1c4.4,2.1,8.6,4.2,13,6.5c1.5,5.9,3.2,11.3-1.4,14.8c-6.5-0.9-11.7-1.7-17.6-2.6
		c-0.8,6.8-1.4,12-2,17.3c2.6,3.5,5,6.6,7.2,9.8c0.6-0.6,1.2-1.2,1.7-1.8c5.1,0,10.4,0,16.9,0c3.6-5.7,7.4-11.6,10.4-16.3
		c0-8.6,0-15.4,0-23.3c-4.4-11.1-14.2-17.3-27-20.5c-4.4,1.8-9.5,3.2-13.9,5.7c-17.8,9.9-27.4,33.1-21.7,53.5
		c8,28.8,38.7,42.9,62.7,26.5c6.3-4.4,12.8-8.7,18.1-14.2c15.7-15.8,30.9-32.1,46.1-48.3c1.2-1.4,1.7-3.3,2.9-5.9
		c-5.3-2.6-10.1-4.5-14.6-6.8c-4.5-2.3-9-4.7-14.5-7.4c7.7-2.6,17.8-1.2,40.8,4.8c20.9-23.3,42.5-47.3,63.4-70.6
		c-5.3-9-17.3-5.9-20.2-15.8c10.2,0.8,19.6,1.4,30.4,2.3c21.2-26.1,41.6-53.6,58.1-85.4c-13.6-5-25.9-9.5-38.4-14
		c0.3-1.2,0.6-2.4,0.9-3.6c6.9,0.8,13.9,1.5,20.6,2.4c7.4,0.9,14.8,2,21.5,3c2.3-3.3,3.8-4.7,4.4-6.6c5-13.6,10.4-26.8,14.2-40.7
		C440.1,358.9,439.5,349.7,439.8,341z"/>
	<path class="st0" d="M124.7,382.6c1.7-2.9,3.3-5.6,4.7-8.3c5.7-12,12.5-23.6,16.9-36.1c6.3-17.9,22.7-20.8,36.9-29.4
		c0.8,3.5,1.7,5,1.4,6.5c-3.5,16.9-6.3,33.9-10.7,50.5c-4.7,18.2,5.9,39.2,23.6,43.1c14.5,3.2,29.2,5.3,43.8,7.5
		c5,0.8,9.9,0.3,17.8,0.6c-10.5,27.6-9.3,54.2-12.2,80.6c8.4,5,24.2,2.3,31.2-5.4c-5.1-3.3-10.2-6.8-15.4-9.9
		c7.5-22,14.6-42.3,21.4-62.8c5.4-16.6,1.4-22.6-13.1-27.6c-16.4-5.6-32.4-12-49.4-18.2c0.6-13.3,10.8-22.1,15.2-34
		c-3.2-8.4-9.5-16.1-9.2-28.3c21.2,10.7,35.4,28.9,55.4,38.1c14-8.9,27.4-17,40.4-25.9c5-3.5,10.4-7.8,7.2-15.8
		c-16.9,6.2-32.2,14.8-49.9,16.4c-7.5-8.4-15.1-15.4-20.8-23.6c-18.7-27.7-63.1-31.9-85.1-13.6c-9,7.5-19.3,13.4-29.2,19.6
		c-6.6,4.1-10.7,9.5-12.4,17.2c-0.8,3.6-2.1,6.9-3.3,10.4c-3.6,11.6-7.5,23-10.7,34.6C118.1,373.4,116.1,379.6,124.7,382.6z"/>
	<path class="st0" d="M127.9,612.4c-7.2-3.8-14-7.2-20.8-10.7c0.3-0.9,0.6-1.8,0.9-2.9c8.1,0.5,17.2,3,24.2,0.5
		c7.1-2.6,12.4-10.2,18.4-15.7c-0.3-1.1-0.6-2.1-1.1-3c-36.8-9.6-73.5-19.3-110-28.9c-6.3,4.4-15.4,2.7-18.4,11.9
		c4.4,3.3,8.6,6.6,12.8,9.9c-0.3,0.9-0.5,1.7-0.8,2.6c-7.7-0.6-15.2-1.1-23.2-1.7c-8.6,11-8.1,22.4-4.8,34.2
		c15.4,7.2,31.6,10.2,45.6,18.2c-0.3,0.9-0.6,1.8-0.8,2.7c-13.3-2-26.5-4.1-40.5-6.2c5.3,12.7,15.5,17.8,27,21.1
		c22.7,6.8,45.6,13.1,68.5,19.6c8.7,2.4,17.3,4.7,27.9,7.5c-3.9-11.6-8.9-20.8-9.8-30.3C122.8,632,126.2,622.2,127.9,612.4z"/>
	<path class="st0" d="M505.9,233.6c-19.4,18.7-37.4,36-55.6,53.6c15.7,48,3.2,93.2-15.1,138.3c23.8-22,41.1-48.7,61.6-74.3
		c-8.4-8-16.6-15.5-25.2-23.3c11-25.9,20.2-51.8,33.7-77.9c11.4,13.6,21.8,25.2,31.6,37.2c16.3,19.7,29.4,42.6,55.1,52
		C563.3,303.7,534.2,268.3,505.9,233.6z"/>
	<path class="st0" d="M116,555.2c2,1.1,5,0.2,7.5,0.2c-1.8-9.3-3.5-17.3-4.7-23.8c13.4-13.9,24.1-27.6,37.4-37.8
		c22.7-17.8,32.4-42.3,41.1-67.9c-11.3-5.7-22.1-11.3-33.4-17c-2,12.4-3.9,24.1-5.9,36c-1.8,11-5.1,20.5-15.7,27.1
		c-6.2,3.8-10.4,11.1-14.6,17.3c-8.7,13-13.7,28.6-28.6,37.1C101.8,538.3,109.6,552,116,555.2z"/>
	<path class="st0" d="M308.9,300.2c14.5-15.8,30.7-17.9,42.3-5c-0.3,1.4-0.6,2.9-1.2,4.4c-3.9,10.2-3,12.4,6.9,16.1
		c5.9,2.3,11.9,3.9,19.6,6.3c0.5-17.9,0.6-36,19.6-48c-30.9-8.7-58.9-16.6-85.1-23.9c-15.1,7.7-22.6,17.6-21.2,32.1
		C291,292.7,297.2,297.8,308.9,300.2z"/>
	<path class="st0" d="M475.8,218.7c2.3-0.9,3.5-1.2,4.5-1.8c4.7-3.2,9.3-6.3,14.2-9.5c9.2-6.2,10.5-6,19.4,0.2
		c5.7,4.1,11.7,7.8,18.8,12.7c-0.8-13.6-8.4-23.9-5.7-34.8c5.6-7.7,15.8-9.3,19.3-19.4c-10.5-0.6-19.3-1.2-28.9-1.8
		c-4.2-9.2-8.1-18.1-13.3-29.2c-4.8,11-8.6,19.3-12.7,28.5c-9.9,1.2-18.4,2.4-27,3.5c-0.3,0.9-0.6,2-0.9,2.9
		c5.7,5.1,11.6,10.4,19.1,17.2C480.6,196.4,478.2,207.1,475.8,218.7z"/>
	<path class="st0" d="M255.1,269c5.1-17.9,3.9-32.7-1.2-47.3c-0.8-2.1-4.5-4.8-6.5-4.5c-11.1,1.4-23.8-0.6-32.1,14.3
		c2,8.1,4.4,18.1,7.1,28.9C233,263.3,243.1,266,255.1,269z"/>
</g>
</svg>
