<?xml version="1.0" encoding="utf-8"?>
<!-- Generator: Adobe Illustrator 24.0.1, SVG Export Plug-In . SVG Version: 6.00 Build 0)  -->
<svg version="1.1" id="Camada_1" xmlns="http://www.w3.org/2000/svg" xmlns:xlink="http://www.w3.org/1999/xlink" x="0px" y="0px"
	 viewBox="0 0 2000 2000" style="enable-background:new 0 0 2000 2000;" xml:space="preserve">
<style type="text/css">
	.st0{fill:#C9A226;}
</style>
<g>
	<path class="st0" d="M1480.85,740.82c1.01-24.16-2.01-48.99,1.68-73.15c7.05-46.98-17.79-78.19-50.67-104.03
		c-25.84-20.81-61.74-13.76-83.56,13.09c-10.07,12.75-18.79,26.17-27.85,39.26c0,15.1,0,30.2,0,44.63
		c13.09,21.81,22.82,46.98,59.73,35.91c6.71-8.72,14.76-20.13,25.84-35.23c-19.8-11.74-34.9-20.81-51.01-30.2
		c-5.7-25.17,13.09-31.88,33.89-41.61c14.09,5.7,29.87,12.08,43.96,18.12c4.03,7.72,6.71,12.08,8.72,17.11
		c27.18,63.09-11.74,123.82-80.2,122.48c-22.82-0.67-45.64-4.7-67.78-10.74c-42.62-11.74-83.89-25.17-127.85-38.93
		c-12.08,9.06-23.83,17.78-34.9,25.84c5.7,58.72,70.13,40.27,96.64,81.21c-37.92-4.7-71.14-8.72-106.04-13.09
		c-3.69,6.71-7.72,13.09-11.07,20.13c-22.15,42.95-40.27,88.59-66.78,128.52c-51.01,77.18-61.74,167.45-95.64,249.33
		c27.85,15.77,52.01,28.86,78.86,43.96c-5.03,22.15-9.73,39.93-14.09,59.06c-79.19,20.13-156.71,39.26-242.61,61.07
		c3.02-52.01,5.7-97.65,8.05-142.95c-3.69-1.01-7.72-2.01-11.07-3.02c-67.78,43.62-132.55,90.94-187.92,152.01
		c39.26,20.13,77.85,30.87,109.06,55.03c-1.01,3.69-2.68,6.71-3.69,10.07c-50-10.07-100-20.81-152.68-31.88
		c-19.13,14.77-39.26,29.87-59.73,44.63c3.69,19.8,6.04,35.23,8.05,46.64c58.05,17.11,110.74,31.88,163.42,47.99
		c42.95,13.09,71.81,42.62,86.58,84.56c7.72,21.14,11.07,43.96,15.77,61.74c-3.02,17.79-5.7,30.2-7.72,43.96
		c-4.7,37.92-53.69,101.01-87.58,101.68c-89.6,1.68-111.07,3.02-139.6-81.88c-2.01-6.71-4.03-12.75-5.7-18.12
		c10.07-50.67,36.24-84.9,87.92-97.65c14.76,7.05,28.86,14.09,43.62,21.81c5.03,19.8,10.74,37.92-4.7,49.66
		c-21.81-3.02-39.26-5.7-59.06-8.72c-2.68,22.82-4.7,40.27-6.71,58.05c8.72,11.74,16.78,22.15,24.16,32.89
		c2.01-2.01,4.03-4.03,5.7-6.04c17.11,0,34.9,0,56.71,0c12.08-19.13,24.83-38.93,34.9-54.7c0-28.86,0-51.68,0-78.19
		c-14.76-37.25-47.65-58.05-90.6-68.79c-14.76,6.04-31.88,10.74-46.64,19.13c-59.73,33.22-91.95,111.07-72.82,179.53
		c26.85,96.64,129.86,143.96,210.4,88.93c21.14-14.77,42.95-29.19,60.74-47.65c52.68-53.02,103.69-107.72,154.7-162.08
		c4.03-4.7,5.7-11.07,9.73-19.8c-17.79-8.72-33.89-15.1-48.99-22.82s-30.2-15.77-48.66-24.83c25.84-8.72,59.73-4.03,136.91,16.11
		c70.13-78.19,142.62-158.72,212.75-236.91c-17.79-30.2-58.05-19.8-67.78-53.02c34.23,2.68,65.77,4.7,102.01,7.72
		c71.14-87.58,139.6-179.86,194.96-286.57c-45.64-16.78-86.91-31.88-128.86-46.98c1.01-4.03,2.01-8.05,3.02-12.08
		c23.15,2.68,46.64,5.03,69.13,8.05c24.83,3.02,49.66,6.71,72.15,10.07c7.72-11.07,12.75-15.77,14.76-22.15
		c16.78-45.64,34.9-89.93,47.65-136.58C1481.85,800.88,1479.84,770.01,1480.85,740.82z"/>
	<path class="st0" d="M423.47,880.41c5.7-9.73,11.07-18.79,15.77-27.85c19.13-40.27,41.95-79.19,56.71-121.14
		c21.14-60.07,76.17-69.8,123.82-98.66c2.68,11.74,5.7,16.78,4.7,21.81c-11.74,56.71-21.14,113.76-35.91,169.46
		c-15.77,61.07,19.8,131.54,79.19,144.63c48.66,10.74,97.99,17.79,146.98,25.17c16.78,2.68,33.22,1.01,59.73,2.01
		c-35.23,92.62-31.21,181.88-40.94,270.47c28.19,16.78,81.21,7.72,104.7-18.12c-17.11-11.07-34.23-22.82-51.68-33.22
		c25.17-73.82,48.99-141.94,71.81-210.74c18.12-55.7,4.7-75.84-43.96-92.62c-55.03-18.79-108.72-40.27-165.77-61.07
		c2.01-44.63,36.24-74.16,51.01-114.09c-10.74-28.19-31.88-54.03-30.87-94.97c71.14,35.91,118.79,96.98,185.9,127.85
		c46.98-29.87,91.95-57.05,135.57-86.91c16.78-11.74,34.9-26.17,24.16-53.02c-56.71,20.81-108.05,49.66-167.45,55.03
		c-25.17-28.19-50.67-51.68-69.8-79.19c-62.75-92.95-211.74-107.05-285.57-45.64c-30.2,25.17-64.76,44.97-97.99,65.77
		c-22.15,13.76-35.91,31.88-41.61,57.72c-2.68,12.08-7.05,23.15-11.07,34.9c-12.08,38.93-25.17,77.18-35.91,116.11
		C401.33,849.54,394.62,870.35,423.47,880.41z"/>
	<path class="st0" d="M434.21,1651.54c-24.16-12.75-46.98-24.16-69.8-35.91c1.01-3.02,2.01-6.04,3.02-9.73
		c27.18,1.68,57.72,10.07,81.21,1.68c23.83-8.72,41.61-34.23,61.74-52.68c-1.01-3.69-2.01-7.05-3.69-10.07
		c-123.49-32.21-246.64-64.76-369.12-96.98c-21.14,14.77-51.68,9.06-61.74,39.93c14.76,11.07,28.86,22.15,42.95,33.22
		c-1.01,3.02-1.68,5.7-2.68,8.72c-25.84-2.01-51.01-3.69-77.85-5.7c-28.86,36.91-27.18,75.17-16.11,114.76
		c51.68,24.16,106.04,34.23,153.02,61.07c-1.01,3.02-2.01,6.04-2.68,9.06c-44.63-6.71-88.93-13.76-135.9-20.81
		c17.79,42.62,52.01,59.73,90.6,70.8c76.17,22.82,153.02,43.96,229.86,65.77c29.19,8.05,58.05,15.77,93.62,25.17
		c-13.09-38.93-29.87-69.8-32.89-101.68C417.1,1717.32,428.51,1684.43,434.21,1651.54z"/>
	<path class="st0" d="M1702.66,380.42c-65.1,62.75-125.5,120.8-186.58,179.86c52.68,161.07,10.74,312.75-50.67,464.09
		c79.86-73.82,137.92-163.42,206.71-249.33c-28.19-26.85-55.7-52.01-84.56-78.19c36.91-86.91,67.78-173.82,113.09-261.41
		c38.25,45.64,73.15,84.56,106.04,124.83c54.7,66.11,98.66,142.95,184.9,174.49C1895.27,615.65,1797.62,496.86,1702.66,380.42z"/>
	<path class="st0" d="M394.28,1459.6c6.71,3.69,16.78,0.67,25.17,0.67c-6.04-31.21-11.74-58.05-15.77-79.86
		c44.97-46.64,80.87-92.62,125.5-126.84c76.17-59.73,108.72-141.94,137.92-227.85c-37.92-19.13-74.16-37.92-112.08-57.05
		c-6.71,41.61-13.09,80.87-19.8,120.8c-6.04,36.91-17.11,68.79-52.68,90.94c-20.81,12.75-34.9,37.25-48.99,58.05
		c-29.19,43.62-45.97,95.97-95.97,124.5C346.63,1402.89,372.8,1448.86,394.28,1459.6z"/>
	<path class="st0" d="M1041.59,603.91c48.66-53.02,103.02-60.07,141.94-16.78c-1.01,4.7-2.01,9.73-4.03,14.76
		c-13.09,34.23-10.07,41.61,23.15,54.03c19.8,7.72,39.93,13.09,65.77,21.14c1.68-60.07,2.01-120.8,65.77-161.07
		c-103.69-29.19-197.65-55.7-285.57-80.2c-50.67,25.84-75.84,59.06-71.14,107.72C981.52,578.74,1002.33,595.85,1041.59,603.91z"/>
	<path class="st0" d="M1601.65,330.42c7.72-3.02,11.74-4.03,15.1-6.04c15.77-10.74,31.21-21.14,47.65-31.88
		c30.87-20.81,35.23-20.13,65.1,0.67c19.13,13.76,39.26,26.17,63.09,42.62c-2.68-45.64-28.19-80.2-19.13-116.78
		c18.79-25.84,53.02-31.21,64.76-65.1c-35.23-2.01-64.76-4.03-96.98-6.04c-14.09-30.87-27.18-60.74-44.63-97.99
		c-16.11,36.91-28.86,64.76-42.62,95.64c-33.22,4.03-61.74,8.05-90.6,11.74c-1.01,3.02-2.01,6.71-3.02,9.73
		c19.13,17.11,38.93,34.9,64.09,57.72C1617.76,255.59,1609.7,291.49,1601.65,330.42z"/>
	<path class="st0" d="M861.05,499.21c17.11-60.07,13.09-109.73-4.03-158.72c-2.68-7.05-15.1-16.11-21.81-15.1
		c-37.25,4.7-79.86-2.01-107.72,47.99c6.71,27.18,14.76,60.74,23.83,96.98C786.89,480.08,820.79,489.14,861.05,499.21z"/>
</g>
</svg>
